<svg width="635" height="668" viewBox="0 0 635 668" fill="none" xmlns="http://www.w3.org/2000/svg">
<g clip-path="url(#clip0_895_311)">
<path d="M271.06 300.3L325.33 314.6C327.173 315.031 328.822 316.059 330.021 317.523C331.22 318.988 331.902 320.808 331.96 322.7C331.96 327.3 327.87 331.1 322.84 331.1H287.24C283.404 331.089 279.605 330.342 276.05 328.9C270.81 326.7 264.77 327.2 260.75 330.9L241.75 348.4C240.871 349.169 240.113 350.066 239.5 351.06C238.716 352.347 238.194 353.776 237.964 355.265C237.735 356.755 237.802 358.275 238.163 359.738C238.523 361.201 239.17 362.578 240.066 363.79C240.961 365.002 242.087 366.025 243.38 366.8C253.902 373.115 265.683 377.041 277.89 378.3V396C277.89 404.8 285.72 412 295.26 412H312.63C322.18 412 330.01 404.8 330.01 396V378.4C362.94 374.8 387.85 347.4 383.51 315.4C380.36 292.4 361.05 274.1 336.95 267.7L282.68 253.4C280.837 252.969 279.188 251.941 277.989 250.477C276.79 249.012 276.108 247.192 276.05 245.3C276.05 240.7 280.14 236.9 285.17 236.9H320.77C324.62 236.906 328.433 237.653 332 239.1C337.23 241.3 343.28 240.8 347.3 237.1L366.3 219.6C367.15 218.847 367.881 217.971 368.47 217C369.261 215.714 369.789 214.283 370.025 212.792C370.26 211.3 370.197 209.777 369.84 208.309C369.483 206.842 368.839 205.46 367.944 204.243C367.05 203.027 365.924 201.999 364.63 201.22C354.104 194.905 342.32 190.98 330.11 189.72V172C330.11 163.2 322.29 156 312.74 156H295.37C285.82 156 278 163.2 278 172V189.6C245.11 193.2 220.15 220.6 224.49 252.6C227.63 275.6 247 293.9 271.06 300.3ZM565.27 484.1C553.47 473.4 535.07 474.1 522.67 484.1L430.27 558C418.928 567.099 404.811 572.04 390.27 572H272C267.757 572 263.687 570.314 260.686 567.314C257.686 564.313 256 560.243 256 556C256 551.757 257.686 547.687 260.686 544.686C263.687 541.686 267.757 540 272 540H350.29C366.19 540 381 529.1 383.54 513.4C383.853 511.597 384.007 509.77 384 507.94C383.984 499.463 380.606 491.34 374.606 485.351C368.607 479.363 360.477 476 352 476H192C165.016 476.007 138.855 485.289 117.9 502.29L71.4 540H16C11.7565 540 7.68687 541.686 4.68629 544.686C1.68571 547.687 0 551.757 0 556L0 652C0 656.243 1.68571 660.313 4.68629 663.314C7.68687 666.314 11.7565 668 16 668H372.77C387.306 668.011 401.413 663.074 412.77 654L564 533C567.638 530.09 570.597 526.422 572.67 522.25C574.742 518.078 575.88 513.504 576.001 508.847C576.123 504.191 575.227 499.563 573.375 495.289C571.523 491.015 568.761 487.196 565.28 484.1H565.27Z" fill="white"/>
</g>
<path d="M475.959 266.236L407.904 198.181C402.251 192.528 402.251 183.39 407.904 177.737C413.557 172.084 422.695 172.084 428.348 177.737L461.501 210.89V101.209C461.501 93.2279 467.964 86.7506 475.959 86.7506C483.955 86.7506 490.418 93.2279 490.418 101.209V210.89L523.571 177.737C526.39 174.918 530.091 173.501 533.793 173.501C537.494 173.501 541.195 174.918 544.015 177.737C549.668 183.39 549.668 192.528 544.015 198.181L475.959 266.236Z" fill="white"/>
<defs>
<clipPath id="clip0_895_311">
<rect width="576" height="512" fill="white" transform="translate(0 156)"/>
</clipPath>
</defs>
</svg>
