<svg width="28" height="24" viewBox="0 0 28 24" fill="none" xmlns="http://www.w3.org/2000/svg">
<path d="M15.5021 14.6542C15.0946 14.6542 14.761 14.3223 14.761 13.9156C14.761 13.5421 14.4613 13.2407 14.0877 13.2407C13.715 13.2407 13.4145 13.5421 13.4145 13.9156C13.4145 14.8283 14.0079 15.5991 14.828 15.881V16.2621C14.828 16.634 15.1294 16.9371 15.5021 16.9371C15.8739 16.9371 16.1753 16.634 16.1753 16.2621V15.881C16.9954 15.5991 17.5888 14.8283 17.5888 13.9156C17.5888 12.7627 16.6524 11.8263 15.5021 11.8263C15.0946 11.8263 14.761 11.4944 14.761 11.0869C14.761 10.6785 15.0946 10.3466 15.5021 10.3466C15.9088 10.3466 16.2424 10.6785 16.2424 11.0869C16.2424 11.4587 16.5438 11.761 16.9165 11.761C17.2883 11.761 17.5888 11.4587 17.5888 11.0869C17.5888 10.1726 16.9954 9.4034 16.1753 9.1207V8.73782C16.1753 8.36598 15.8739 8.06375 15.5021 8.06375C15.1294 8.06375 14.828 8.36598 14.828 8.73782V9.1207C14.0079 9.4034 13.4145 10.1726 13.4145 11.0869C13.4145 12.2381 14.3501 13.1736 15.5021 13.1736C15.9088 13.1736 16.2424 13.5056 16.2424 13.9156C16.2424 14.3223 15.9088 14.6542 15.5021 14.6542ZM9.62392 18.5594H8.41755C7.49218 18.5391 6.7434 17.7818 6.7434 16.8505V15.6823C8.19682 15.9582 9.34631 17.1077 9.62392 18.5594ZM24.26 15.6823V16.8505C24.26 17.7818 23.512 18.5391 22.5875 18.5594L21.3769 18.5586C21.6545 17.1069 22.8066 15.9565 24.26 15.6823ZM21.3769 6.43629H22.5476C23.49 6.43629 24.2574 7.20375 24.2591 8.1461L24.2583 9.31342C22.8057 9.03665 21.6545 7.88801 21.3769 6.43629ZM22.8677 5.08984L12.5 5.08984C12.1282 5.08984 11.8259 5.39207 11.8259 5.76307C11.8259 6.13406 12.1282 6.43629 12.5 6.43629H20.0169C20.3199 8.63085 22.0629 10.3738 24.26 10.6734V14.3231C22.0612 14.6237 20.3174 16.3674 20.0169 18.5637H10.984C10.6834 16.3674 8.94135 14.6254 6.7434 14.3231L6.7434 12.5C6.7434 12.1273 6.44117 11.8259 6.06933 11.8259C5.69663 11.8259 5.39525 12.1273 5.39525 12.5L5.39525 15.0761C5.39525 15.0872 5.39355 15.0974 5.39355 15.1101V17.168C5.39355 18.6783 6.622 19.9076 8.134 19.9076H8.41755C8.43028 19.9076 8.44302 19.911 8.45575 19.911H22.5476C22.5604 19.911 22.5739 19.9076 22.5875 19.9076H22.8677C24.3797 19.9076 25.6073 18.6783 25.6073 17.168V7.82774C25.6073 6.31914 24.3797 5.08984 22.8677 5.08984Z" fill="white"/>
<path d="M6.5 2C5.60998 2 4.73996 2.26392 3.99994 2.75839C3.25991 3.25285 2.68314 3.95566 2.34254 4.77793C2.00195 5.60019 1.91283 6.50499 2.08647 7.37791C2.2601 8.25082 2.68868 9.05264 3.31802 9.68198C3.94736 10.3113 4.74918 10.7399 5.62209 10.9135C6.49501 11.0872 7.39981 10.9981 8.22208 10.6575C9.04434 10.3169 9.74715 9.74009 10.2416 9.00007C10.7361 8.26004 11 7.39002 11 6.5C11.0005 5.90891 10.8844 5.32353 10.6584 4.77735C10.4325 4.23116 10.101 3.73489 9.68307 3.31693C9.26511 2.89897 8.76884 2.56752 8.22265 2.34155C7.67647 2.11558 7.09109 1.99951 6.5 2ZM6.5 9.94118C5.8194 9.94118 5.15408 9.73935 4.58819 9.36123C4.02229 8.98311 3.58122 8.44567 3.32077 7.81688C3.06031 7.18809 2.99217 6.49618 3.12495 5.82866C3.25773 5.16114 3.58547 4.54798 4.06672 4.06672C4.54798 3.58546 5.16114 3.25772 5.82866 3.12495C6.49618 2.99217 7.18809 3.06031 7.81688 3.32077C8.44567 3.58122 8.98311 4.02229 9.36123 4.58819C9.73936 5.15408 9.94118 5.8194 9.94118 6.5C9.94208 6.95216 9.85369 7.40004 9.68108 7.81795C9.50847 8.23587 9.25503 8.61558 8.9353 8.9353C8.61558 9.25502 8.23587 9.50847 7.81795 9.68108C7.40004 9.85369 6.95216 9.94208 6.5 9.94118ZM7.77059 5.89118L7.02941 6.20882V4.38235C7.02941 4.24195 6.97363 4.10729 6.87435 4.008C6.77507 3.90872 6.64041 3.85294 6.5 3.85294C6.35959 3.85294 6.22493 3.90872 6.12565 4.008C6.02637 4.10729 5.97059 4.24195 5.97059 4.38235V7.02941C5.96837 7.11855 5.98912 7.20677 6.03084 7.28557C6.07257 7.36438 6.13386 7.43113 6.20882 7.47941C6.28247 7.5288 6.3681 7.55733 6.45664 7.562C6.54519 7.56666 6.63335 7.54727 6.71177 7.50588L8.19412 6.84412C8.45882 6.71176 8.59118 6.42059 8.45882 6.15588C8.32647 5.89118 8.03529 5.75882 7.77059 5.89118Z" fill="white"/>
</svg>
